<?xml version="1.0" standalone="no"?>
<!DOCTYPE svg PUBLIC "-//W3C//DTD SVG 20010904//EN"
 "http://www.w3.org/TR/2001/REC-SVG-20010904/DTD/svg10.dtd">
<svg version="1.0" xmlns="http://www.w3.org/2000/svg"
 width="260.000000pt" height="260.000000pt" viewBox="0 0 260.000000 260.000000"
 preserveAspectRatio="xMidYMid meet">
<metadata>
Created by potrace 1.11, written by Peter Selinger 2001-2013
</metadata>
<g transform="translate(0.000000,260.000000) scale(0.100000,-0.100000)"
fill="#000000" stroke="none">
<path d="M931 1568 c0 -358 -3 -667 -7 -687 -20 -119 -64 -197 -132 -233 -60
-32 -84 -38 -175 -39 -143 -2 -248 76 -272 201 -3 19 -8 44 -10 55 -2 11 -4
54 -4 95 l-1 76 -93 -2 c-50 -1 -109 -2 -130 -3 l-38 -1 2 -121 c1 -66 7 -143
14 -169 42 -158 159 -270 332 -314 63 -16 226 -22 298 -11 129 21 242 74 320
151 50 49 109 150 120 204 3 14 8 39 11 55 6 32 9 1354 3 1359 -2 2 -26 6 -54
10 -66 8 -135 17 -162 21 l-22 3 0 -650z"/>
<path d="M1298 2183 c-3 -4 -4 -386 -4 -848 l1 -840 25 1 c50 2 326 16 370 19
25 2 106 6 180 10 74 4 158 8 185 10 28 2 115 6 195 10 80 4 159 8 175 10 17
2 45 3 63 4 l32 1 0 85 0 85 -132 -5 c-73 -3 -187 -7 -253 -9 -66 -3 -201 -8
-300 -11 -99 -4 -208 -8 -242 -9 -35 -1 -63 0 -63 3 -4 66 -2 563 2 567 3 3
210 6 459 7 l454 2 0 89 0 90 -454 3 c-250 2 -457 6 -459 8 -3 3 -5 454 -2
522 0 12 58 12 350 -1 58 -3 184 -8 280 -12 96 -3 208 -7 248 -9 l72 -3 0 84
c0 80 -1 84 -22 85 -13 1 -34 3 -48 4 -14 1 -97 5 -185 9 -88 4 -187 9 -220
11 -55 4 -105 7 -390 20 -49 2 -140 7 -202 10 -61 3 -113 2 -115 -2z"/>
</g>
</svg>
